<?xml version="1.0" encoding="UTF-8" standalone="yes"?>
<!DOCTYPE svg PUBLIC "-//W3C//DTD SVG 1.1//EN" "http://www.w3.org/Graphics/SVG/1.1/DTD/svg11.dtd">

<svg width="256" height="256" viewBox="0 0 256 256" xmlns="http://www.w3.org/2000/svg" xmlns:xlink="http://www.w3.org/1999/xlink" version="1.1" baseProfile="full">
    <g transform="scale(1.000000,-1.000000) translate(0,-256)">
        <path fill="#4372AA" d="M 108.638301 1.000000 L 108.638301 1.000000 L 11.385012 1.000000 C 3.280571 1.000000 -1.822225 10.004945 2.680242 16.908737 L 2.680242 16.908737 L 24.292082 50.227037 L 33.597180 64.634950 L 59.411325 64.634950 C 67.515766 64.634950 73.819220 58.031323 73.819220 50.227037 L 73.819220 50.227037 L 44.403102 50.227037 L 22.791262 16.908737 L 92.129253 16.908737 C 101.434327 16.908746 108.638301 9.704808 108.638301 1.000000 Z" transform="scale(1.000000,1.000000) translate(1.892580,28.433369)" opacity="1.000000"></path>
        <path fill="#ECC635" d="M 98.253285 1.000000 L 87.147200 1.000000 C 80.543581 1.000000 74.240127 4.301813 70.638154 10.004945 L 48.726148 43.623408 L 25.613485 7.903792 C 22.912005 3.701484 18.109374 1.300165 13.306743 1.300165 L 1.000000 1.300165 L 38.820723 59.532144 L 40.921874 62.833958 C 45.124177 69.137419 54.429275 69.137419 58.631578 62.833958 L 60.132400 60.732804 L 98.253285 1.000000 Z" transform="scale(1.000000,1.000000) translate(78.313777,159.005077)" opacity="1.000000"></path>
        <path fill="#9D2B24" d="M 135.773842 16.908732 L 188.302623 16.908732 L 136.074008 97.352908 L 87.147203 41.222080 L 37.019736 98.253401 L 28.314966 84.745982 C 24.112664 78.142356 16.908717 74.240213 9.104441 74.240213 L 1.000000 74.240213 L 26.814134 113.861986 L 26.814134 113.861986 L 29.815779 118.364459 C 31.316601 120.465613 33.717916 121.966437 36.119232 121.966437 L 36.419396 121.966437 C 38.820712 121.966437 41.222028 120.765778 42.422686 118.664624 L 87.447355 69.437590 L 131.871695 118.964790 C 133.072353 121.065944 135.473669 122.266603 137.874985 122.266603 L 137.874985 122.266603 C 140.276300 122.266603 142.377452 121.065944 143.878274 118.964790 L 146.879918 114.162152 L 209.914455 16.908737 L 210.814948 15.407913 C 214.717086 9.104452 210.514784 1.000000 203.010673 1.000000 L 119.264790 1.000000 L 119.264790 1.000000 C 119.865117 9.704794 126.768908 16.908732 135.773842 16.908732 Z" transform="scale(1.000000,1.000000) translate(40.793220,28.433383)" opacity="1.000000"></path>
    </g>
</svg>